# xmcd
#
# Track frame offsets:
#	150
#	16322
#	35889
#	56569
#	76441
#	94376
#	114850
#	135222
#	152489
#	169786
#	185492
#	201124
#
# Disc length: 2931 seconds
#
# Revision: 0
# Processed by: cddbd v1.4PL0 Copyright (c) Steve Scherf et al.
# Submitted via: dBpowerAMP V4.0
#
DISCID=950b710c
DTITLE=Plastika - Plastika
DYEAR=2001
DGENRE=Blues
TTITLE0=Shake
TTITLE1=Quando a Gente Tem Alguém
TTITLE2=Por Mais Ninguém
TTITLE3=Outras Formas
TTITLE4=Só Quando Eu Respiro
TTITLE5=O Tempo
TTITLE6=Cada Um Sabe do Seu Ritmo
TTITLE7=Fui Eu
TTITLE8=Tudo Que Você Deixou Pelo Caminho
TTITLE9=Simples
TTITLE10=Universo
TTITLE11=Boa Sorte
EXTD=By Digitman 2003
EXTT0=
EXTT1=
EXTT2=
EXTT3=
EXTT4=
EXTT5=
EXTT6=
EXTT7=
EXTT8=
EXTT9=
EXTT10=
EXTT11=
PLAYORDER=
